<mxfile host="app.diagrams.net" modified="2022-02-21T12:20:43.257Z" agent="5.0 (Windows NT 10.0; Win64; x64) AppleWebKit/537.36 (KHTML, like Gecko) Chrome/97.0.4692.99 Safari/537.36 OPR/83.0.4254.62" etag="KBlVM4zATxQN8kRZl3m0" version="16.6.1" type="github">
  <diagram id="OA-crFaYtUBZIhcZp7TP" name="Page-1">
    <mxGraphModel dx="975" dy="764" grid="1" gridSize="10" guides="1" tooltips="1" connect="1" arrows="1" fold="1" page="1" pageScale="1" pageWidth="827" pageHeight="1169" math="0" shadow="0">
      <root>
        <mxCell id="0" />
        <mxCell id="1" parent="0" />
        <mxCell id="fJpYyIbXkoogERbRVHtv-1" value="" style="strokeWidth=2;html=1;shape=mxgraph.flowchart.database;whiteSpace=wrap;" vertex="1" parent="1">
          <mxGeometry x="380" y="360" width="60" height="60" as="geometry" />
        </mxCell>
        <mxCell id="fJpYyIbXkoogERbRVHtv-4" value="" style="edgeStyle=orthogonalEdgeStyle;rounded=0;orthogonalLoop=1;jettySize=auto;html=1;" edge="1" parent="1" source="fJpYyIbXkoogERbRVHtv-2" target="fJpYyIbXkoogERbRVHtv-3">
          <mxGeometry relative="1" as="geometry" />
        </mxCell>
        <mxCell id="fJpYyIbXkoogERbRVHtv-2" value="" style="strokeWidth=2;html=1;shape=mxgraph.flowchart.display;whiteSpace=wrap;" vertex="1" parent="1">
          <mxGeometry x="360" y="360" width="100" height="60" as="geometry" />
        </mxCell>
        <mxCell id="fJpYyIbXkoogERbRVHtv-7" value="" style="edgeStyle=orthogonalEdgeStyle;rounded=0;orthogonalLoop=1;jettySize=auto;html=1;" edge="1" parent="1" source="fJpYyIbXkoogERbRVHtv-3" target="fJpYyIbXkoogERbRVHtv-6">
          <mxGeometry relative="1" as="geometry" />
        </mxCell>
        <mxCell id="fJpYyIbXkoogERbRVHtv-3" value="" style="rhombus;whiteSpace=wrap;html=1;strokeWidth=2;" vertex="1" parent="1">
          <mxGeometry x="370" y="490" width="80" height="80" as="geometry" />
        </mxCell>
        <mxCell id="fJpYyIbXkoogERbRVHtv-6" value="" style="ellipse;whiteSpace=wrap;html=1;strokeWidth=2;" vertex="1" parent="1">
          <mxGeometry x="350" y="660" width="120" height="60" as="geometry" />
        </mxCell>
      </root>
    </mxGraphModel>
  </diagram>
</mxfile>
